<?xml version="1.0" encoding="UTF-8" standalone="no"?>
<svg
   version="1.0"
   width="259.000000pt"
   height="195.000000pt"
   viewBox="0 0 259.000000 195.000000"
   preserveAspectRatio="xMidYMid meet"
   id="svg12"
   sodipodi:docname="protzilla.svg"
   inkscape:version="1.4 (e7c3feb1, 2024-10-09)"
   xmlns:inkscape="http://www.inkscape.org/namespaces/inkscape"
   xmlns:sodipodi="http://sodipodi.sourceforge.net/DTD/sodipodi-0.dtd"
   xmlns="http://www.w3.org/2000/svg"
   xmlns:svg="http://www.w3.org/2000/svg">
  <defs
     id="defs12" />
  <sodipodi:namedview
     id="namedview12"
     pagecolor="#ffffff"
     bordercolor="#000000"
     borderopacity="0.25"
     inkscape:showpageshadow="2"
     inkscape:pageopacity="0.0"
     inkscape:pagecheckerboard="0"
     inkscape:deskcolor="#d1d1d1"
     inkscape:document-units="pt"
     inkscape:zoom="2.112568"
     inkscape:cx="145.08409"
     inkscape:cy="116.20928"
     inkscape:window-width="1512"
     inkscape:window-height="852"
     inkscape:window-x="0"
     inkscape:window-y="38"
     inkscape:window-maximized="0"
     inkscape:current-layer="svg12" />
  <g
     transform="translate(0.000000,195.000000) scale(0.100000,-0.100000)"
     fill="#000000"
     stroke="none"
     id="g12">
    <path
       d="M1370 1866 c-6 -29 -17 -62 -24 -72 -15 -20 -17 -19 -88 36 l-28 22 -10 -27 c-5 -14 -13 -63 -16 -109 -6 -74 -9 -82 -28 -84 -34 -2 -52 -35 -59 -108 -6 -57 -3 -72 13 -99 24 -39 25 -58 5 -75 -22 -18 -19 -28 16 -49 33 -20 96 -21 168 -1 19 5 37 8 39 6 2 -2 -5 -27 -14 -54 l-18 -51 -86 -21 c-150 -37 -160 -41 -160 -54 0 -9 -17 -16 -44 -20 -73 -11 -162 -62 -202 -114 -34 -45 -38 -47 -88 -48 -30 -1 -75 -11 -101 -23 -55 -24 -55 -24 -138 49 l-48 42 46 29 c30 19 52 42 62 66 14 34 14 42 -1 89 -9 28 -24 58 -34 66 -9 8 -54 28 -99 44 l-82 28 -26 -24 c-38 -35 -84 -108 -95 -150 -7 -25 -5 -69 5 -145 8 -61 15 -144 15 -186 0 -64 5 -85 31 -138 17 -33 46 -73 64 -87 18 -14 36 -35 39 -47 3 -13 19 -36 35 -51 l31 -29 80 18 c75 17 82 17 117 2 21 -9 60 -21 87 -27 59 -13 145 6 222 50 l51 29 27 -28 c24 -24 25 -30 14 -59 -10 -25 -9 -39 1 -69 16 -44 38 -73 58 -73 11 0 10 5 -2 24 -9 13 -20 38 -25 56 -12 42 1 60 43 60 17 0 54 7 82 16 38 12 60 14 81 7 32 -11 27 14 50 -260 4 -48 2 -73 -5 -73 -5 0 -27 11 -47 25 -20 14 -39 23 -42 20 -10 -9 21 -34 56 -46 20 -6 42 -18 48 -25 10 -12 13 -12 24 1 7 8 24 15 39 15 20 0 23 2 11 10 -8 5 -25 10 -37 10 -20 0 -23 5 -23 44 l0 45 35 -6 c45 -7 44 6 -1 35 l-35 23 3 86 c3 85 3 87 31 94 20 5 43 1 83 -17 31 -13 79 -28 107 -32 48 -7 52 -9 49 -32 -2 -14 -12 -40 -23 -58 -24 -42 -24 -44 6 -30 13 6 31 26 40 44 21 45 27 47 65 19 19 -14 40 -25 48 -25 9 0 11 -7 7 -19 -3 -11 -1 -22 5 -26 6 -4 10 8 10 33 0 37 -3 40 -51 62 -28 13 -52 27 -54 31 -3 3 22 23 55 43 l60 38 35 -29 c18 -15 34 -31 34 -35 1 -3 -10 -20 -24 -36 -14 -17 -25 -40 -25 -52 0 -22 1 -22 18 -7 10 10 20 17 23 17 2 0 4 -59 4 -130 0 -95 3 -130 12 -130 20 0 34 71 23 110 -26 91 0 194 70 273 42 49 31 59 -20 18 -38 -30 -41 -31 -69 -16 -56 28 -75 70 -81 170 l-5 90 -30 5 c-26 4 -35 16 -68 82 -44 89 -43 96 14 168 46 58 87 89 97 72 5 -7 24 -5 62 9 62 21 113 18 170 -11 81 -42 104 -103 81 -221 -23 -116 -44 -135 -110 -97 -39 22 -41 22 -73 6 -18 -9 -42 -18 -52 -20 -11 -2 -21 -9 -24 -15 -6 -19 49 -16 77 3 19 14 26 14 47 3 34 -18 63 -68 70 -123 4 -28 11 -45 18 -43 12 4 13 20 3 89 -6 45 -5 49 21 62 16 8 34 27 41 43 l14 28 23 -50 c27 -57 31 -126 10 -167 -16 -31 -4 -47 19 -28 11 9 21 8 46 -4 40 -20 49 -20 49 -2 0 8 -13 23 -30 33 -25 14 -30 24 -30 54 0 49 -21 115 -53 165 -23 37 -26 51 -24 120 3 132 -44 191 -171 217 l-62 13 32 32 c18 17 29 34 26 37 -3 3 -44 9 -92 12 -47 3 -86 9 -86 13 0 4 23 14 52 22 28 8 53 19 55 25 2 6 -19 37 -47 68 -27 32 -50 62 -50 67 0 5 15 15 34 23 19 8 37 19 41 25 3 5 -16 34 -44 63 l-50 53 24 40 c30 48 31 61 5 69 -17 5 -20 15 -20 67 l0 60 -57 -4 -57 -3 -13 44 c-7 24 -14 46 -17 48 -2 2 -38 -13 -79 -33 l-75 -38 -56 42 c-30 23 -60 42 -65 42 -5 0 -15 -24 -21 -54z m71 -17 c16 -11 29 -24 29 -28 0 -9 -81 -43 -87 -37 -6 5 16 86 23 86 3 0 19 -9 35 -21z m212 -9 c4 -17 0 -20 -34 -20 -45 0 -51 14 -11 28 38 14 39 14 45 -8z m-359 -74 l29 -23 -39 -26 c-48 -34 -52 -34 -47 1 13 83 14 83 57 48z m494 -15 c4 -44 -20 -38 -29 8 -6 26 -4 31 10 29 10 -2 17 -15 19 -37z m-136 -6 c-2 -16 -21 -67 -42 -112 -21 -46 -35 -83 -30 -83 5 0 24 19 44 43 42 50 58 46 94 -23 28 -55 29 -101 2 -125 -12 -10 -30 -34 -41 -52 -32 -51 -146 -89 -222 -74 l-32 7 65 35 c36 20 86 45 112 55 27 10 48 23 48 27 0 16 -96 1 -125 -19 -83 -58 -213 -104 -297 -104 -32 0 -58 4 -58 10 0 6 15 10 34 10 49 0 151 34 195 64 39 28 87 99 76 116 -3 5 -30 -3 -64 -21 -106 -55 -272 -64 -263 -13 2 10 3 34 3 53 -1 39 13 61 41 61 11 0 30 13 44 30 36 42 150 115 209 134 31 9 81 14 130 13 l80 -2 -3 -30z m78 3 c0 -5 -4 -8 -10 -8 -5 0 -10 10 -10 23 0 18 2 19 10 7 5 -8 10 -18 10 -22z m43 -69 c20 -5 37 -14 37 -19 0 -4 -12 -23 -26 -40 l-27 -31 -38 37 c-22 21 -39 47 -39 57 0 20 0 20 93 -4z m47 -164 c18 -19 31 -37 29 -40 -3 -2 -21 -6 -40 -7 -33 -3 -34 -2 -37 40 -2 23 1 42 5 42 5 0 24 -16 43 -35z m-430 -73 c0 -5 -22 -19 -50 -32 -59 -27 -135 -33 -135 -10 0 11 17 17 66 22 36 4 77 12 90 17 13 5 25 10 27 10 1 1 2 -3 2 -7z m362 -121 l3 -84 -35 -10 c-19 -5 -41 -13 -47 -19 -23 -18 -44 -1 -37 29 8 34 48 117 77 160 28 41 34 29 39 -76z m-562 74 c0 -8 -2 -15 -4 -15 -2 0 -6 7 -10 15 -3 8 -1 15 4 15 6 0 10 -7 10 -15z m643 -41 c20 -23 37 -46 37 -51 0 -6 -18 -15 -40 -21 l-40 -10 0 33 c0 18 -3 47 -7 65 -8 41 2 37 50 -16z m-203 -44 c0 -5 -7 -27 -16 -49 -14 -34 -23 -42 -66 -57 -27 -9 -51 -14 -54 -11 -3 2 0 25 6 49 11 41 15 46 58 61 57 18 72 20 72 7z m-164 -20 c19 -8 24 -15 19 -28 -3 -9 -9 -30 -12 -45 -5 -24 -10 -28 -29 -23 -57 15 -75 26 -70 44 3 9 8 30 12 45 7 30 16 31 80 7z m-973 -48 c32 -28 20 -44 -15 -22 -34 21 -68 26 -68 11 0 -5 13 -14 30 -21 l29 -12 -19 -38 c-27 -52 -40 -59 -33 -15 5 31 3 36 -23 45 -15 6 -37 9 -48 7 -19 -3 -17 -5 9 -17 17 -8 32 -15 33 -16 10 -6 -11 -63 -25 -68 -12 -5 -14 -1 -10 14 3 11 1 22 -4 26 -12 7 -33 -41 -26 -60 9 -24 67 -20 107 8 30 20 37 21 48 9 11 -11 10 -17 -10 -34 -13 -11 -34 -24 -48 -30 l-25 -11 45 -39 c25 -22 64 -54 87 -72 46 -35 47 -36 34 -56 -7 -11 -20 -5 -60 31 -58 53 -139 103 -149 93 -4 -4 7 -18 23 -32 145 -119 165 -144 165 -205 0 -21 4 -38 10 -38 5 0 12 17 15 38 12 71 15 81 42 113 33 39 79 59 134 59 35 0 48 -6 80 -39 22 -21 39 -48 39 -60 0 -12 6 -21 15 -21 26 0 17 47 -16 85 -29 33 -30 38 -19 65 15 37 71 87 124 111 29 13 65 19 123 19 91 0 87 4 98 -86 6 -49 5 -53 -33 -97 -22 -25 -55 -66 -73 -91 -18 -25 -34 -46 -37 -46 -3 0 -20 10 -39 21 -44 28 -51 19 -19 -24 l26 -35 -35 -31 c-59 -51 -94 -65 -165 -66 -50 0 -81 7 -132 28 -84 36 -109 30 -45 -11 99 -63 252 -68 330 -11 l27 20 0 -31 c0 -25 -8 -35 -47 -60 -25 -16 -62 -35 -81 -41 -50 -17 -139 -7 -203 23 l-57 26 -70 -21 c-69 -20 -72 -20 -92 -2 -25 23 -25 32 0 40 27 9 25 25 -4 25 -36 0 -87 40 -121 94 -28 46 -30 58 -36 180 -4 72 -12 159 -19 194 -12 60 -11 64 16 119 16 31 42 69 57 84 l28 28 57 -21 c31 -12 65 -28 75 -36z m1412 -51 l29 -6 -28 -23 c-16 -12 -41 -25 -55 -28 -70 -14 -116 -41 -157 -91 -23 -28 -44 -57 -46 -64 -8 -24 -38 10 -38 43 0 41 57 146 89 163 27 15 149 18 206 6z m-469 -21 c24 -9 26 -14 19 -48 -3 -20 -10 -41 -15 -45 -11 -13 -100 29 -100 47 0 8 5 27 10 41 11 29 22 29 86 5z m181 9 c9 -9 8 -19 -3 -40 -11 -22 -28 -33 -77 -48 -35 -11 -64 -15 -66 -9 -1 5 0 24 3 43 6 28 13 36 49 48 52 19 80 20 94 6z m-1069 -27 c3 -18 -2 -22 -22 -22 -29 0 -31 3 -15 31 13 25 33 20 37 -9z m752 -7 c0 -34 -31 -128 -52 -157 l-22 -32 -8 34 c-4 19 -9 51 -12 71 -5 27 -13 38 -34 45 -26 10 -25 11 38 32 79 25 90 26 90 7z m89 -87 c50 -20 52 -22 45 -52 -8 -40 -9 -41 -41 -27 -52 21 -84 54 -77 79 8 27 9 27 73 0z m194 -10 c-3 -13 -10 -29 -16 -36 -9 -12 -116 -47 -121 -40 -2 1 1 17 6 35 6 25 17 34 51 46 64 23 86 22 80 -5z m-178 -139 l0 -34 -71 -6 c-80 -8 -137 -23 -153 -43 -17 -21 33 -58 107 -80 34 -11 62 -24 62 -31 0 -25 -33 -121 -47 -136 -28 -33 -130 -70 -180 -67 -41 3 -50 7 -70 37 -41 61 -27 115 58 228 29 37 83 103 122 146 l70 77 51 -28 c46 -26 51 -33 51 -63z m241 -46 c30 -65 68 -131 83 -148 20 -21 30 -44 35 -80 3 -27 7 -59 8 -69 2 -14 -11 -29 -46 -50 -39 -24 -62 -31 -115 -34 -61 -3 -72 -1 -148 38 -46 23 -87 49 -92 58 -4 9 -6 45 -3 80 5 69 1 66 99 76 53 5 153 42 153 57 0 17 -53 48 -103 59 -91 21 -88 19 -85 52 3 27 10 33 63 53 33 13 68 24 78 24 12 1 32 -31 73 -116z m-144 -38 c104 -22 111 -29 47 -51 -78 -27 -224 -24 -302 6 -33 12 -55 26 -50 31 28 28 200 37 305 14z m-141 -308 c-5 -5 -22 -6 -38 -2 l-28 7 25 13 c28 15 60 1 41 -18z"
       id="path1" />
    <path
       d="M1400 1687 c-34 -11 -130 -94 -130 -113 0 -11 70 -34 103 -34 31 0 64 36 87 97 25 67 16 74 -60 50z m30 -39 c0 -30 -40 -78 -64 -78 -42 0 -42 21 -1 57 40 34 65 42 65 21z"
       id="path2" />
    <path
       d="M2130 581 c0 -12 29 -23 41 -15 18 10 9 24 -16 24 -14 0 -25 -4 -25 -9z"
       id="path3" />
    <path
       d="M2078 418 c-42 -53 -78 -104 -78 -112 0 -3 4 -6 10 -6 12 0 120 133 120 149 0 21 -18 11 -52 -31z"
       id="path4" />
    <path
       d="M2272 437 c-6 -12 -13 -45 -16 -74 -7 -68 -24 -99 -96 -176 -58 -62 -64 -78 -31 -77 23 1 144 151 158 197 14 45 17 140 5 147 -5 3 -14 -5 -20 -17z"
       id="path5" />
    <path
       d="M1273 267 c-34 -20 -43 -37 -19 -37 19 0 60 34 55 47 -2 5 -18 1 -36 -10z"
       id="path6" />
    <path
       d="M1726 253 c-20 -29 -23 -40 -14 -57 10 -18 13 -16 34 29 13 27 24 52 24 57 0 19 -21 5 -44 -29z"
       id="path7" />
    <path
       d="M1527 262 c-22 -24 -21 -32 3 -32 20 0 28 -24 11 -35 -6 -3 -10 -23 -9 -44 l0 -38 55 -1 c44 0 52 2 43 13 -6 7 -22 16 -35 19 -23 6 -25 11 -25 71 0 70 -12 82 -43 47z"
       id="path8" />
    <path
       d="M1160 247 c0 -40 30 -128 46 -134 25 -9 27 4 5 28 -24 26 -27 45 -8 52 9 4 8 8 -3 16 -13 10 -13 12 0 21 13 8 12 11 -5 24 -28 21 -35 20 -35 -7z"
       id="path9" />
    <path
       d="M1590 248 c0 -8 20 -24 45 -36 48 -23 63 -11 28 21 -26 23 -73 33 -73 15z"
       id="path10" />
    <path
       d="M1435 220 c3 -5 15 -10 25 -10 10 0 22 5 25 10 4 6 -7 10 -25 10 -18 0 -29 -4 -25 -10z"
       id="path11" />
    <path
       d="M1700 136 c0 -17 5 -26 16 -26 10 0 14 7 12 22 -5 32 -28 35 -28 4z"
       id="path12" />
  </g>
  <path
     style="fill:#d40000;stroke:#ff0c0c;stroke-width:0.326083"
     d="m 164.88655,33.779372 c -0.21935,-0.571621 1.2555,-9.441747 1.7777,-10.691553 0.81071,-1.940299 1.57692,-1.712845 6.02465,1.788431 2.5027,1.970138 3.20521,2.665641 2.94157,2.912205 -1.08528,1.014948 -9.49825,6.434363 -9.98856,6.434363 -0.32186,0 -0.66177,-0.199551 -0.75536,-0.443446 z"
     id="path13"
     transform="scale(0.75)" />
  <path
     style="fill:#d40000;stroke:#ff0c0c;stroke-width:0.326083"
     d="m 184.48989,21.861481 c -0.21666,-0.350578 0.005,-1.66363 0.87725,-5.185957 0.81979,-3.312196 1.79541,-5.747229 2.30268,-5.747229 0.59384,0 5.30643,3.267283 6.83691,4.740091 1.3626,1.311264 1.3811,1.352112 0.86875,1.918259 -0.70948,0.783968 -5.17359,2.880601 -8.09948,3.804036 -2.75214,0.868597 -2.56029,0.836178 -2.78611,0.4708 z"
     id="path14"
     transform="scale(0.75)" />
  <path
     style="fill:#d40000;stroke:#ff0c0c;stroke-width:0.103315"
     d="m 213.99178,17.217964 c -1.66309,-0.169549 -2.5954,-0.484907 -2.98422,-1.009425 -0.16458,-0.222016 -0.16689,-0.257293 -0.0337,-0.514786 0.36345,-0.702826 1.41387,-1.291999 4.00766,-2.247858 3.6861,-1.358392 4.35249,-1.386221 4.88537,-0.204017 0.31419,0.697015 0.6399,1.968497 0.6399,2.497935 0,0.79094 -0.42463,1.181423 -1.50634,1.385205 -0.72748,0.137049 -3.98337,0.197469 -5.00863,0.09295 z"
     id="path15"
     transform="scale(0.75)" />
  <path
     style="fill:#d40000;stroke:#ff0c0c;stroke-width:0.103315"
     d="m 231.0765,44.935383 c -3.81743,-3.744998 -5.09575,-5.233935 -6.23697,-7.264592 -0.57408,-1.021504 -0.77918,-1.665229 -0.77901,-2.444978 1.6e-4,-0.735496 0.18559,-1.211198 0.54657,-1.402127 0.32812,-0.173556 1.61669,-0.08599 3.05247,0.207434 1.88585,0.385404 9.29118,2.280426 10.34195,2.646499 1.73508,0.604484 3.28026,1.542198 3.28026,1.990671 0,0.410183 -1.26623,2.439886 -2.65045,4.24852 -0.7333,0.958145 -4.22061,5.026604 -4.35418,5.079795 -0.0314,0.01249 -1.47167,-1.365056 -3.20064,-3.061222 z"
     id="path16"
     transform="scale(0.75)" />
  <path
     style="fill:#d40000;stroke:#ff0c0c;stroke-width:0.202371"
     d="m 237.45374,63.840258 c -0.65261,-0.561356 -0.93874,-2.010819 -1.08126,-5.477438 -0.10998,-2.675137 0.078,-4.666003 0.46316,-4.904019 0.61826,-0.382104 7.0161,5.620037 8.71525,8.176224 0.51117,0.768993 0.9294,1.465318 0.9294,1.54739 0,0.385598 -4.51149,1.06619 -7.08461,1.068766 -1.27193,0.0013 -1.52498,-0.05227 -1.94194,-0.410923 z"
     id="path17"
     transform="scale(0.75)" />
  <path
     style="fill:#d40000;stroke:#ff0c0c;stroke-width:0.202371"
     d="m 238.75293,86.584229 c -0.10436,-3.675903 -0.42954,-6.928692 -0.93098,-9.312448 -0.35768,-1.700347 -0.3546,-3.358306 0.007,-3.496872 0.46295,-0.177649 1.69228,0.778645 3.90213,3.035456 3.30336,3.373555 7.09273,8.088129 7.36145,9.158799 0.27908,1.111941 -1.85257,2.153135 -7.2133,3.523303 l -3.02132,0.77223 z"
     id="path18"
     transform="scale(0.75)" />
  <path
     style="fill:#d40000;stroke:#ff0c0c;stroke-width:0.202371"
     d="m 217.82009,130.13205 c -1.23391,-0.75244 -2.3826,-2.6999 -2.87276,-4.87041 -0.24438,-1.08217 -0.25731,-1.49556 -0.082,-2.62322 0.81553,-5.24573 6.33892,-15.76268 10.15023,-19.32681 1.61967,-1.51462 3.15749,-2.03441 7.63255,-2.57986 3.70786,-0.45193 14.0312,-0.45874 17.5691,-0.0116 2.07105,0.26176 6.40652,1.04641 7.11755,1.28816 0.28437,0.0967 -2.73497,2.63934 -4.55748,3.83793 -2.41275,1.58678 -4.46349,2.45835 -7.5925,3.22682 -3.74226,0.91909 -5.6154,1.56282 -8.25316,2.83632 -3.60335,1.73968 -6.83363,4.14205 -9.46259,7.03734 -2.78565,3.06785 -6.55905,8.05124 -7.57997,10.01057 -0.54489,1.04575 -0.95543,1.51192 -1.33033,1.5106 -0.10394,-3.7e-4 -0.43633,-0.1515 -0.73865,-0.33585 z"
     id="path19"
     transform="scale(0.75)" />
  <path
     style="fill:#d40000;stroke:#ff0c0c;stroke-width:0.202371"
     d="m 163.3874,131.78259 c -0.0642,-0.28097 -0.26251,-1.11323 -0.44065,-1.84946 -0.50796,-2.0993 -1.01637,-4.79899 -1.59654,-8.47778 -0.63439,-4.02258 -0.9252,-5.20831 -1.56625,-6.38612 -0.64973,-1.19378 -1.40739,-1.77115 -3.46185,-2.63807 -1.87316,-0.79041 -2.26559,-1.07448 -1.89486,-1.37159 1.21213,-0.97143 12.99976,-4.79361 16.25686,-5.27135 2.34465,-0.3439 2.77676,0.19016 2.42334,2.99508 -0.55283,4.38757 -3.15117,12.53827 -5.43365,17.0448 -0.42261,0.83439 -1.53367,2.63044 -2.46901,3.99122 -1.60668,2.33744 -1.70709,2.44591 -1.81739,1.96327 z"
     id="path20"
     transform="scale(0.75)" />
  <path
     style="fill:#d40000;stroke:#ff0c0c;stroke-width:0.118596"
     d="m 180.84472,50.563834 c -1.51088,-0.258332 -2.29809,-0.59514 -2.61825,-1.12023 -0.46548,-0.763414 -0.15171,-1.914645 0.90395,-3.316599 1.59061,-2.112403 5.57531,-5.389289 8.0737,-6.639544 1.57582,-0.788576 2.3975,-0.892818 2.97405,-0.377299 l 0.34159,0.305424 -0.001,1.028162 c -8e-4,0.803475 -0.0551,1.188165 -0.24864,1.760327 -1.0624,3.141348 -4.01627,6.712952 -6.58891,7.966832 -0.67446,0.328727 -0.88605,0.380179 -1.67352,0.406969 -0.4958,0.01687 -1.01912,0.01055 -1.16294,-0.01404 z"
     id="path21"
     transform="scale(0.75)" />
  <path
     style="fill:#d40000;stroke:#ff0c0c;stroke-width:0.112303"
     d="m 163.07961,75.021642 c -1.54059,-0.291893 -2.33024,-0.871289 -2.33024,-1.709786 0,-0.316852 0.07,-0.487876 0.31298,-0.764607 0.81467,-0.927855 2.71019,-1.42105 7.78769,-2.026276 7.0579,-0.841283 10.68919,-1.591537 14.16325,-2.92624 1.21169,-0.46552 2.04516,-0.736053 2.09963,-0.681511 0.0497,0.04974 0.1198,0.274956 0.15583,0.50047 0.0613,0.383526 0.0398,0.435736 -0.3323,0.807837 -1.17768,1.177675 -5.17376,3.359261 -8.43899,4.607107 -2.42838,0.928034 -5.05479,1.619274 -7.82452,2.059321 -1.68894,0.268333 -4.52492,0.336115 -5.59333,0.133685 z"
     id="path22"
     transform="scale(0.75)" />
  <path
     style="fill:#d40000;stroke:#ff0c0c;stroke-width:0.0375533"
     d="m 157.96297,75.871148 c -0.31085,-0.272932 -1.09089,-1.652986 -1.24538,-2.203327 -0.096,-0.341974 -0.10301,-0.840824 -0.0156,-1.10709 0.11708,-0.356495 0.33497,-0.53552 0.65216,-0.535815 0.51051,-4.76e-4 0.98038,0.474074 1.19186,1.203726 0.22128,0.763426 0.0207,2.418535 -0.32801,2.707011 -0.0761,0.06299 -0.12349,0.05101 -0.25506,-0.0645 z"
     id="path23"
     transform="scale(0.75)" />
  <path
     style="fill:#ffffff;stroke:#ffffff;stroke-width:0.514412;stroke-opacity:1"
     d="m 99.307723,192.32132 c -3.579168,-0.59872 -9.175979,-2.48898 -14.003109,-4.72941 -2.412492,-1.11971 -4.688939,-2.03584 -5.058767,-2.03584 -0.369833,0 -4.161659,1.02079 -8.426285,2.26841 -9.815442,2.87154 -10.535505,2.88478 -13.252904,0.24377 -1.145765,-1.11356 -2.083208,-2.34048 -2.083208,-2.7265 0,-0.38738 0.94666,-1.15726 2.112754,-1.71823 2.391061,-1.15027 3.362622,-2.30087 2.592835,-3.07066 -0.270249,-0.27025 -1.715006,-0.66432 -3.21057,-0.87572 -4.554167,-0.64373 -7.829096,-2.78752 -12.594068,-8.24415 -2.762588,-3.16359 -5.740785,-8.53555 -6.506854,-11.73681 -0.463693,-1.93769 -0.783204,-5.6942 -1.910108,-22.45728 -0.600272,-8.92924 -1.084928,-13.29199 -2.309378,-20.78838 -0.786447,-4.81482 -0.86086,-6.17135 -0.431972,-7.87462 1.17474,-4.66531 6.751843,-13.985583 11.19669,-18.711536 l 2.667548,-2.836252 4.536823,1.682199 c 9.779301,3.626047 15.198358,6.86822 15.198358,9.09304 0,1.020559 -1.182046,0.767346 -4.406987,-0.944049 -5.046924,-2.678275 -8.7498,-3.166888 -8.7498,-1.15458 0,1.032543 1.784854,2.386679 4.562985,3.461853 1.108475,0.428994 2.183909,0.927995 2.389853,1.108895 0.660273,0.57996 -4.648099,10.42302 -5.621149,10.42302 -0.31271,0 -0.369897,-1.26135 -0.169696,-3.74288 0.352085,-4.36416 0.129838,-4.72004 -3.732487,-5.97678 -2.505924,-0.8154 -7.45294,-0.83074 -7.718459,-0.0239 -0.08403,0.25533 1.599057,1.33307 3.740198,2.39497 3.882075,1.92531 3.892126,1.93481 3.586979,3.39205 -0.413345,1.97393 -1.897014,5.32748 -2.796897,6.32183 -1.343284,1.48432 -1.835884,0.98661 -1.779709,-1.79815 0.05031,-2.49416 0.0028,-2.60867 -1.081583,-2.60867 -2.512079,0 -4.331652,7.20644 -2.286822,9.05698 2.327157,2.10605 7.990782,1.23939 13.816139,-2.11417 3.826428,-2.20281 4.106587,-2.2926 5.217346,-1.67207 0.716475,0.40027 1.229024,1.12905 1.31556,1.87057 0.121276,1.0392 -0.305009,1.54429 -2.948935,3.49407 -1.699889,1.2536 -4.36832,2.83924 -5.929848,3.52366 -1.561529,0.68441 -2.786471,1.37853 -2.722094,1.54248 0.164509,0.41897 12.633255,11.01157 16.456332,13.98019 4.072056,3.16194 6.571674,5.52058 6.571674,6.201 0,0.29601 -0.369462,0.99446 -0.821026,1.55212 -0.790448,0.97616 -0.874431,0.9863 -2.255026,0.27237 -0.788701,-0.40785 -3.430556,-2.43936 -5.870789,-4.51446 -8.140906,-6.9228 -16.172388,-12.07648 -18.841202,-12.09013 -2.764418,-0.0141 -1.225404,1.94552 6.842049,8.71212 14.05344,11.78738 16.526968,15.11153 17.251226,23.18375 0.711676,7.93199 2.220044,7.07347 4.136562,-2.35442 0.721073,-3.54716 1.775189,-7.40819 2.342482,-8.58005 1.430356,-2.95473 6.383192,-7.75405 9.615642,-9.3176 5.509705,-2.66508 12.671514,-3.23789 16.440764,-1.31496 2.2231,1.13413 7.98224,7.10527 9.25022,9.59071 0.50918,0.99807 0.92578,2.29236 0.92578,2.87621 0,1.41468 0.81096,2.15038 2.37038,2.15038 3.49042,0 2.09848,-6.48081 -2.58219,-12.02258 -3.38667,-4.00971 -3.53035,-4.66222 -1.83051,-8.31358 2.06979,-4.44604 8.70134,-10.44342 15.08568,-13.64305 4.80283,-2.40702 7.91018,-2.92907 17.64478,-2.96439 11.19753,-0.0406 10.95212,-0.21297 12.20077,8.56833 1.00803,7.08913 0.90864,8.41472 -0.82296,10.97633 -0.81815,1.21032 -3.12143,4.14008 -5.11839,6.51057 -1.99697,2.37049 -5.50752,6.7956 -7.80123,9.83358 -2.29371,3.03798 -4.34981,5.63448 -4.5691,5.77001 -0.21929,0.13553 -2.41922,-0.86994 -4.88873,-2.2344 -2.46952,-1.36445 -4.7332,-2.48082 -5.03042,-2.48082 -1.72619,0 -0.63791,2.77981 2.87619,7.34664 1.12357,1.46017 1.97634,2.82528 1.89504,3.03358 -0.0813,0.20829 -1.37275,1.45317 -2.86991,2.76639 -8.96268,7.86159 -13.43028,9.72191 -23.36464,9.72913 -7.10974,0.005 -9.383091,-0.4858 -18.091981,-3.90723 -5.806027,-2.28099 -9.669037,-3.14358 -10.203729,-2.27843 -0.524225,0.84823 3.938925,4.22955 8.560532,6.48554 14.114298,6.88976 31.145418,6.37154 41.625358,-1.26657 l 2.15499,-1.57062 v 2.69364 c 0,2.05254 -0.24656,3.06054 -1.03594,4.2352 -1.85688,2.76321 -10.28982,7.95395 -16.07626,9.89546 -2.25253,0.75579 -3.85289,0.9359 -7.93944,0.89355 -2.81503,-0.0292 -6.16094,-0.22745 -7.435357,-0.44063 z"
     id="path25"
     transform="scale(0.75)" />
  <path
     style="fill:#ffffff;stroke:#ffffff;stroke-width:0.514412;stroke-opacity:1"
     d="m 146.03596,191.02414 c -2.64331,-0.63126 -4.58271,-2.62325 -6.84206,-7.02757 -3.85818,-7.52106 -0.32014,-15.85825 14.365,-33.85024 3.11215,-3.81296 8.21608,-9.78184 11.34206,-13.26417 3.12598,-3.48234 6.39815,-7.1397 7.27148,-8.12747 l 1.58789,-1.79595 4.99051,2.78067 c 2.74478,1.52937 5.70505,3.48846 6.57839,4.35354 1.52303,1.50863 1.59426,1.72622 1.74397,5.32687 l 0.15608,3.75399 -6.50763,0.53882 c -15.76707,1.30547 -24.72778,4.30014 -23.8099,7.95727 0.72715,2.8972 5.90301,6.07094 15.24961,9.35077 6.47262,2.27131 7.54848,3.01565 7.35082,5.08569 -0.21115,2.2113 -3.53783,12.02657 -4.97753,14.68605 -3.37775,6.23952 -20.09039,12.23977 -28.49869,10.23173 z"
     id="path26"
     transform="scale(0.75)" />
  <path
     style="fill:#ffffff;stroke:#ffffff;stroke-width:0.226605;stroke-opacity:1"
     d="m 180.1671,158.79588 c -5.19214,-0.54393 -9.0209,-1.30481 -12.6901,-2.52188 -2.90239,-0.96273 -6.59628,-2.75286 -7.39004,-3.58136 -0.56697,-0.59179 -0.57134,-0.61258 -0.19266,-0.91683 4.17863,-3.35728 24.13371,-4.50975 37.69689,-2.17711 4.6403,0.79805 11.76022,2.5778 13.151,3.28732 1.12614,0.57452 1.33656,0.91769 0.87931,1.43411 -1.2261,1.38475 -8.03438,3.48433 -13.86738,4.27652 -3.32743,0.45191 -14.01896,0.57302 -17.58702,0.19923 z"
     id="path27"
     transform="scale(0.75)" />
  <path
     style="fill:#ffffff;stroke:#ffffff;stroke-width:0.0986608;stroke-opacity:1"
     d="m 177.51798,191.50754 c -0.45008,-0.0657 -4.24036,-0.9649 -4.57681,-1.08579 -0.16427,-0.059 3.40015,-1.90992 4.21802,-2.1903 1.41828,-0.48621 2.93518,-0.46654 3.98788,0.0517 0.92629,0.456 1.23252,1.16353 0.84768,1.9585 -0.31377,0.64816 -0.83512,1.05757 -1.55535,1.22138 -0.66444,0.15113 -2.04681,0.17218 -2.92142,0.0445 z"
     id="path28"
     transform="scale(0.75)" />
  <path
     style="fill:#ffffff;stroke:#ffffff;stroke-width:0.147715;stroke-opacity:1"
     d="m 208.11702,195.66246 c -3.12568,-0.35066 -5.58778,-1.30241 -12.5717,-4.85975 -5.45981,-2.78102 -8.50526,-4.5625 -11.11197,-6.50013 -1.39865,-1.03965 -1.57588,-1.26881 -1.82083,-2.3544 -0.30145,-1.33599 -0.35753,-6.80534 -0.10569,-10.30863 0.34123,-4.74692 0.65923,-6.11147 1.64805,-7.07185 1.15102,-1.11793 2.80366,-1.48181 10.21795,-2.2498 3.02003,-0.31283 4.56423,-0.58733 7.35171,-1.30688 5.83755,-1.50688 12.15028,-4.08441 13.72818,-5.6053 0.59372,-0.57227 0.64116,-0.66232 0.57236,-1.0863 -0.27256,-1.6796 -4.07549,-4.34435 -8.90174,-6.23754 -1.77121,-0.69479 -3.3356,-1.13026 -7.79999,-2.17121 -5.86471,-1.36746 -7.56638,-1.97421 -8.1604,-2.9097 -0.23958,-0.3773 -0.25645,-0.56563 -0.19465,-2.17186 0.17032,-4.42644 0.98665,-5.23405 8.03795,-7.95205 4.50371,-1.736 8.57897,-3.03963 10.36916,-3.31698 0.70633,-0.10944 1.12495,0.11127 1.97485,1.0412 1.44554,1.58165 3.31269,4.81528 6.4323,11.13977 1.14864,2.32869 2.81132,5.6996 3.69483,7.49091 3.57744,7.2532 7.14905,13.33231 9.28784,15.80851 0.5165,0.59798 1.16401,1.41873 1.43891,1.82387 1.16618,1.71871 2.12031,4.15077 2.61448,6.66422 0.37014,1.88264 1.46009,11.39342 1.35551,11.82806 -0.42186,1.75328 -2.3639,3.54946 -6.51217,6.02302 -5.12587,3.0565 -8.10901,3.90106 -15.16138,4.29236 -2.75094,0.15263 -4.96748,0.14932 -6.38356,-0.01 z"
     id="path29"
     transform="scale(0.75)" />
  <path
     style="fill:#ffffff;stroke:#ffffff;stroke-width:0.277959;stroke-opacity:1"
     d="m 192.80602,129.96275 c 0,-0.69436 1.23913,-5.46956 1.6036,-6.17976 0.95694,-1.86465 3.16693,-3.12739 8.56989,-4.89665 3.75827,-1.23069 6.83297,-1.58082 7.55362,-0.86017 1.01811,1.01811 -0.21219,5.47636 -1.95797,7.09515 -1.11687,1.03561 -7.25138,3.37411 -12.27935,4.68091 -2.87542,0.74735 -3.48979,0.77561 -3.48979,0.16052 z"
     id="path30"
     transform="scale(0.75)" />
  <path
     style="fill:#ffffff;stroke:#ffffff;stroke-width:0.277959;stroke-opacity:1"
     d="m 185.8194,129.33749 c -5.80887,-2.51705 -9.37173,-5.50383 -10.18991,-8.54231 -0.30351,-1.12715 0.21397,-3.27527 0.94932,-3.94076 0.78391,-0.70942 1.97619,-0.46283 6.40822,1.32538 7.75208,3.12776 8.42691,3.56462 8.38945,5.43101 -0.0243,1.21006 -0.88684,5.11053 -1.30649,5.90791 -0.62608,1.18965 -1.13714,1.16786 -4.25059,-0.18123 z"
     id="path31"
     transform="scale(0.75)" />
  <path
     style="fill:#ffffff;stroke:#ffffff;stroke-width:0.277959;stroke-opacity:1"
     d="m 189.25142,116.3255 c -4.17284,-1.12664 -9.94999,-4.42184 -10.31715,-5.88475 -0.1926,-0.76736 0.009,-1.87649 0.80267,-4.40996 1.3847,-4.42164 2.4208,-4.91748 7.18561,-3.4388 3.64191,1.1302 5.99288,2.09774 6.66736,2.74392 0.85993,0.82387 0.89727,1.91587 0.18674,5.46023 -0.83457,4.16306 -1.7134,5.92863 -2.92505,5.87643 -0.20595,-0.009 -0.92603,-0.16506 -1.60018,-0.34707 z"
     id="path32"
     transform="scale(0.75)" />
  <path
     style="fill:#ffffff;stroke:#ffffff;stroke-width:0.277959;stroke-opacity:1"
     d="m 196.31921,115.56607 c -0.22436,-0.58467 0.13674,-4.68623 0.55942,-6.35427 0.77034,-3.03999 2.05417,-4.08291 7.08145,-5.75258 3.92127,-1.30235 5.79585,-1.71635 7.79121,-1.7207 2.83468,-0.006 4.48498,1.1189 4.44371,3.02945 -0.0319,1.47533 -1.8177,4.82415 -3.15846,5.9228 -1.42321,1.16622 -4.5979,2.60529 -8.09588,3.66984 -5.03833,1.53333 -8.31958,1.99211 -8.62145,1.20546 z"
     id="path33"
     transform="scale(0.75)" />
  <path
     style="fill:#ffffff;stroke:#ffffff;stroke-width:0.277959;stroke-opacity:1"
     d="m 192.31573,100.59919 c -5.74624,-1.51603 -9.07034,-3.243091 -9.07034,-4.712555 0,-0.213932 0.46317,-2.20751 1.02927,-4.430175 1.27107,-4.99053 1.65079,-5.55826 3.67046,-5.487799 1.37263,0.04789 7.16142,1.862689 8.5669,2.685749 0.42785,0.250555 0.99087,0.741288 1.25115,1.090518 0.47177,0.632983 0.47093,0.64293 -0.26699,3.186877 -0.40713,1.403551 -0.92536,3.379274 -1.15163,4.390494 -0.47824,2.13727 -0.90517,3.072271 -1.5638,3.424751 -0.57957,0.31018 -0.77287,0.29858 -2.46502,-0.14786 z"
     id="path34"
     transform="scale(0.75)" />
  <path
     style="fill:#ffffff;stroke:#ffffff;stroke-width:0.277959;stroke-opacity:1"
     d="m 199.26422,100.62081 c -0.40351,-1.051525 1.11215,-7.928125 2.23643,-10.146781 1.01892,-2.010739 2.71052,-2.970404 8.2207,-4.663676 3.72675,-1.145229 5.89836,-1.591549 6.72921,-1.383018 0.88123,0.221172 0.82699,1.234988 -0.22825,4.266617 -2.04459,5.873946 -3.32217,7.730121 -6.32203,9.185194 -2.00519,0.972614 -5.8039,2.234034 -8.32429,2.764214 -2.09803,0.44134 -2.13389,0.44099 -2.31177,-0.0225 z"
     id="path35"
     transform="scale(0.75)" />
  <path
     style="fill:#ffffff;stroke:#ffffff;stroke-width:0.277959;stroke-opacity:1"
     d="m 219.03563,99.075194 c -0.88979,-0.889788 -1.12965,-2.160967 -0.74088,-3.926416 1.31026,-5.950131 10.23643,-22.921185 12.62912,-24.011365 0.53601,-0.244221 0.65926,-0.20582 0.99781,0.310873 0.84564,1.290605 1.42637,7.291063 1.73392,17.915856 l 0.16347,5.647354 -2.5497,0.702448 c -4.25777,1.17302 -6.57483,2.030452 -8.29408,3.069239 -2.00944,1.214121 -2.94799,1.283687 -3.93966,0.292011 z"
     id="path36"
     transform="scale(0.75)" />
  <path
     style="fill:#ffffff;stroke:#ffffff;stroke-width:0.277959;stroke-opacity:1"
     d=""
     id="path37"
     transform="scale(0.75)" />
  <path
     style="fill:#ffffff;stroke:#ffffff;stroke-width:0.114119;stroke-opacity:1"
     d="m 237.00999,30.396744 c -0.63287,-0.255566 -1.42834,-1.52541 -1.94394,-3.103223 -0.42529,-1.301435 -0.93728,-3.972517 -0.88626,-4.623655 0.0609,-0.776716 0.33263,-1.030853 1.10235,-1.030853 1.21761,0 1.94257,0.652562 2.5193,2.26773 0.4074,1.140951 0.52964,1.988093 0.52964,3.670417 0,1.730429 -0.13889,2.333714 -0.62536,2.716376 -0.27998,0.22023 -0.3721,0.233896 -0.69573,0.103208 z"
     id="path38"
     transform="scale(0.75)" />
  <path
     style="fill:#ffffff;stroke:#ffffff;stroke-width:0.0462325;stroke-opacity:1"
     d="m 229.02348,27.863336 c -0.2227,-0.152218 -0.39542,-0.374766 -0.56424,-0.727017 -0.30243,-0.630989 -0.42715,-1.341157 -0.42749,-2.434202 -3.5e-4,-1.095161 0.0964,-1.665744 0.29288,-1.728119 0.26763,-0.08494 1.08638,1.056106 1.78648,2.48969 0.34493,0.706314 0.48215,1.070135 0.5181,1.373678 0.0715,0.60369 -0.39743,1.074292 -1.11742,1.121417 -0.29973,0.01962 -0.32808,0.01408 -0.48831,-0.09545 z"
     id="path39"
     transform="scale(0.75)" />
  <path
     style="fill:#ffffff;stroke:#ffffff;stroke-width:0.862383;stroke-opacity:1"
     d="m 194.51672,83.910936 c -1.35952,-0.189314 -2.47186,-0.620578 -2.47186,-0.958364 0,-0.337787 6.34622,-3.78093 14.1027,-7.651429 7.89138,-3.937811 13.96926,-7.41465 13.79971,-7.894107 -0.41948,-1.186281 -8.54625,-0.79802 -12.50082,0.597235 -1.73998,0.6139 -5.46325,2.503163 -8.27392,4.198362 -13.19385,7.957578 -34.82959,13.525362 -41.73377,10.739848 -1.17619,-0.474536 -0.65875,-0.71949 2.28172,-1.080156 6.77706,-0.831248 16.48518,-3.465105 21.79777,-5.913832 5.73184,-2.641979 11.53867,-8.111017 14.24549,-13.416813 3.23082,-6.332932 1.35332,-7.03036 -7.68461,-2.854579 -8.3829,3.873137 -16.62192,5.92424 -24.20433,6.025664 -4.97322,0.06652 -6.96331,-0.220129 -8.49931,-1.224234 -1.95413,-1.277446 -1.99451,-1.46288 -1.57375,-7.22545 0.59218,-8.110145 1.06238,-9.097032 4.81584,-10.107733 2.08537,-0.561531 4.78772,-2.373734 8.01043,-5.371814 5.49894,-5.115649 14.34503,-11.110943 21.18512,-14.357866 6.1306,-2.910135 11.71531,-3.837883 23.10268,-3.837883 h 9.46469 l -0.50822,3.178227 c -0.27952,1.748026 -2.56884,8.101598 -5.08737,14.119049 -2.51854,6.017452 -4.46115,11.517977 -4.31692,12.22339 0.192,0.939061 1.69206,-0.194279 5.60082,-4.231591 2.93622,-3.032787 5.74831,-5.514159 6.24908,-5.514159 3.12626,0 8.89652,11.195313 8.89652,17.260808 0,3.381376 -0.34253,4.313107 -2.37664,6.464876 -1.30715,1.38276 -3.46922,4.054271 -4.8046,5.93669 -1.33539,1.88242 -3.83149,4.367784 -5.54691,5.52303 -5.60527,3.774874 -17.03936,6.337854 -23.96954,5.372831 z m -5.92306,-31.508253 c 5.0841,-4.463897 9.97026,-18.024252 6.91683,-19.195964 -1.65695,-0.635832 -7.41036,0.670268 -10.94652,2.485003 -3.82428,1.962594 -13.1485,9.916677 -14.54821,12.410432 -0.87246,1.554397 -0.9345,2.253555 -0.25981,2.928237 1.52874,1.528744 8.82297,3.680177 12.56513,3.706086 2.94598,0.0204 4.06586,-0.396269 6.27258,-2.333794 z"
     id="path40"
     transform="scale(0.75)" />
  <path
     style="fill:#ffffff;stroke:#ffffff;stroke-width:0.862383;stroke-opacity:1"
     d="m 103.05774,192.69358 c -4.975338,-0.54449 -9.493782,-1.82257 -16.136899,-4.56447 l -6.629725,-2.73636 -8.581749,2.3761 c -4.719963,1.30684 -8.983313,2.37575 -9.474112,2.37534 -1.10936,-9.5e-4 -5.572514,-3.69503 -5.572514,-4.61228 0,-0.37039 1.026774,-1.2044 2.281721,-1.85336 3.643219,-1.88398 2.645794,-4.18316 -1.814734,-4.18316 -4.186265,0 -11.92054,-6.98252 -15.964693,-14.41296 -2.244437,-4.12377 -2.766886,-7.67186 -4.261315,-28.93974 -0.455604,-6.48389 -1.378639,-15.14704 -2.051189,-19.25144 l -1.222819,-7.46254 3.477672,-6.98836 c 1.91272,-3.843591 5.153106,-8.852806 7.200858,-11.131584 l 3.723186,-4.143234 4.886087,1.769622 c 7.26384,2.630788 13.469261,5.931202 14.391381,7.654199 1.102352,2.059765 -0.496325,2.033429 -4.541067,-0.07481 -1.687751,-0.879705 -4.179662,-1.649786 -5.53758,-1.711291 -3.702474,-0.167698 -3.133247,1.840324 1.119826,3.950331 l 3.588769,1.780437 -2.240745,4.43889 c -2.999415,5.94181 -3.795932,6.27163 -3.795932,1.57183 0,-3.47001 -0.209971,-3.93681 -2.243951,-4.98862 -2.332228,-1.20604 -9.164654,-1.617103 -9.164654,-0.55137 0,0.33496 1.540161,1.35728 3.422581,2.27183 3.827765,1.85967 4.369706,3.72946 2.26219,7.80495 -1.482834,2.86748 -2.642477,2.87061 -2.642477,0.007 0,-2.40502 -0.731049,-3.30034 -2.014031,-2.46657 -2.545529,1.65425 -3.540537,8.72377 -1.346345,9.56576 3.17635,1.21888 7.921178,0.39604 12.877094,-2.23313 3.996689,-2.12029 5.30733,-2.5058 6.147758,-1.80831 2.345258,1.94639 0.903625,3.42563 -9.297051,9.53957 -1.687405,1.01137 -2.809748,-0.12399 11.802498,11.93937 8.768141,7.23867 9.873438,8.40596 9.182326,9.69731 -0.432129,0.80744 -1.081078,1.46807 -1.442108,1.46807 -0.361032,0 -3.917226,-2.6525 -7.902655,-5.89444 -10.541798,-8.57522 -18.768059,-13.20962 -18.768059,-10.57328 0,1.1737 0.978504,2.14266 12.929753,12.80363 8.845655,7.89066 11.283654,11.58081 12.011493,18.18059 0.723131,6.55708 2.423108,6.69732 3.814533,0.31469 2.34027,-10.73509 2.577684,-11.27001 6.945142,-15.64812 2.883525,-2.89056 5.421828,-4.64509 7.977411,-5.51416 4.616018,-1.56975 11.198705,-1.64717 14.064135,-0.1654 3.0585,1.58162 9.20143,8.65513 9.70558,11.17587 0.61393,3.06964 2.2732,4.26443 3.80079,2.73684 1.83768,-1.83768 0.7263,-5.61464 -3.18493,-10.82383 -1.87833,-2.50167 -3.41514,-4.99667 -3.41514,-5.54446 0,-4.36239 8.90298,-13.51558 16.73262,-17.20286 4.61294,-2.17242 5.63075,-2.34635 15.21147,-2.59954 12.26267,-0.32406 12.63894,-0.1505 13.69618,6.31755 1.70559,10.43465 1.83706,10.08432 -8.77288,23.37792 l -9.5276,11.93751 -4.8576,-2.67007 c -6.72474,-3.69638 -7.35517,-1.93 -1.82839,5.12293 l 2.17994,2.78189 -4.38156,3.88267 c -2.40987,2.13546 -6.17074,4.77041 -8.35749,5.85545 -8.07028,4.00434 -19.52686,3.71052 -31.17194,-0.79945 -9.936154,-3.84813 -13.854052,-3.54828 -8.362893,0.64002 12.49887,9.53336 35.617353,10.84083 46.919573,2.65354 l 3.27932,-2.37553 -0.42746,3.18696 c -0.5063,3.7747 -1.86894,5.46354 -7.16141,8.87579 -7.19091,4.63624 -14.53063,6.63683 -21.53619,5.87015 z"
     id="path41"
     transform="scale(0.75)" />
  <path
     style="fill:#ffffff;stroke:#ffffff;stroke-width:0.140881;stroke-opacity:1"
     d="m 195.6303,84.40463 c -1.23831,-0.128218 -2.17085,-0.317752 -3.17479,-0.645261 -0.61149,-0.199484 -1.3548,-0.402209 -1.65178,-0.450501 -0.29699,-0.04829 -0.49268,-0.132393 -0.43488,-0.186892 0.19744,-0.186146 12.77288,-6.922034 15.07713,-8.075887 1.26423,-0.633067 3.27707,-1.610254 4.47297,-2.171527 3.91371,-1.836832 9.70345,-5.186542 9.43346,-5.457822 -0.17781,-0.178661 -1.52796,-0.322084 -3.02053,-0.320865 -2.98462,0.0024 -6.44515,0.496028 -8.64517,1.233103 -1.65287,0.553764 -4.50041,1.991046 -7.64557,3.859061 -8.0388,4.774525 -17.41404,8.549174 -25.91291,10.433031 -3.85174,0.853776 -6.87443,1.235691 -10.5629,1.334614 -2.8329,0.07598 -3.92667,-0.01459 -5.76013,-0.476965 -1.23353,-0.311076 -1.68614,-0.540142 -1.68614,-0.853357 0,-0.509307 1.13707,-0.947987 2.91397,-1.124211 6.00029,-0.595079 14.38484,-2.680974 20.44716,-5.086817 2.86316,-1.136248 5.6853,-2.789752 8.19816,-4.803338 1.65145,-1.323329 4.05579,-3.811259 5.35359,-5.539723 2.37706,-3.165871 4.10591,-6.849641 3.79536,-8.087001 -0.30762,-1.225645 -3.13835,-0.508648 -9.21107,2.333075 -5.18138,2.424616 -9.26231,3.778659 -14.59928,4.844003 -7.64685,1.526434 -14.7674,1.46876 -17.954,-0.14542 -0.66652,-0.337623 -1.42901,-1.037793 -1.69239,-1.554051 -0.2512,-0.492393 -0.25398,-0.570205 -0.11202,-3.126553 0.0801,-1.441876 0.19304,-3.879616 0.25104,-5.417199 0.14475,-3.837143 0.53344,-5.272416 1.81338,-6.696014 0.69567,-0.773758 1.5598,-1.205209 2.87803,-1.436977 2.05247,-0.360859 4.95191,-2.207068 7.0515,-4.490022 5.64769,-6.140908 21.62326,-16.037343 28.63832,-17.740659 1.65586,-0.402058 3.92721,-0.773209 6.15033,-1.004998 3.75535,-0.391544 5.88922,-0.449434 13.36259,-0.362515 l 7.39864,0.08605 -0.22297,1.440728 c -0.50158,3.241054 -0.60397,3.741837 -1.06941,5.230327 -0.74398,2.379291 -2.01146,5.650449 -3.77924,9.753558 -1.79991,4.177698 -2.65712,6.317096 -3.63051,9.060892 -0.91843,2.588853 -1.40395,4.296989 -1.22073,4.294699 0.4787,-0.006 3.87267,-3.281186 6.49491,-6.267621 1.6043,-1.827124 2.6652,-2.731092 3.93329,-3.351472 0.92514,-0.452599 1.00132,-0.469277 1.51765,-0.332273 1.67444,0.444299 3.27364,2.286381 5.47418,6.305564 2.43042,4.439064 3.52012,7.920585 3.53321,11.288319 0.0117,3.019764 -0.62299,4.578185 -2.78325,6.833703 -2.05125,2.141708 -3.53448,4.002579 -4.9022,6.150334 -0.88041,1.382532 -1.75345,2.418253 -2.79743,3.318702 -4.30185,3.71043 -11.431,6.489591 -18.76162,7.313857 -1.39528,0.156887 -5.77335,0.214977 -6.95795,0.09232 z M 184.86083,54.16362 c 1.34934,-0.262375 3.30763,-1.623734 4.69602,-3.264568 2.93598,-3.469809 5.7951,-9.767083 6.39973,-14.095556 0.23018,-1.647774 0.11718,-2.668519 -0.34133,-3.083471 -0.97017,-0.87799 -7.05457,0.37956 -10.71941,2.215535 -3.05567,1.530798 -10.11735,7.26627 -13.38113,10.868111 -1.03535,1.142589 -1.85249,2.532796 -1.85249,3.15165 0,0.442547 0.47714,1.009294 1.18083,1.402593 2.21696,1.239081 7.25319,2.667962 10.29413,2.920654 1.28114,0.106458 2.83107,0.05861 3.72365,-0.114948 z"
     id="path42"
     transform="scale(0.75)" />
  <path
     style="fill:#ffffff;stroke:#ffffff;stroke-width:0.140881;stroke-opacity:1"
     d="m 194.91145,84.351241 c -0.49788,-0.06656 -1.36451,-0.258648 -1.92587,-0.426853 -0.56135,-0.168203 -1.40709,-0.397551 -1.87943,-0.509662 -0.77579,-0.184138 -0.8364,-0.22021 -0.62711,-0.373247 0.72663,-0.531321 13.51725,-7.283519 17.62939,-9.306591 2.67004,-1.313596 5.77717,-2.902713 6.90473,-3.531373 2.12954,-1.1873 4.34873,-2.591975 4.34873,-2.752608 0,-0.191017 -1.25032,-0.293822 -3.41686,-0.280947 -3.50974,0.02086 -6.6376,0.536357 -9.06343,1.493743 -1.5235,0.601268 -4.3854,2.09314 -7.08896,3.695389 -10.07669,5.971894 -22.3643,10.293866 -32.42903,11.406401 -0.85298,0.09429 -2.84676,0.164076 -4.65934,0.163095 -2.82567,-0.0015 -3.29281,-0.0312 -4.31902,-0.274347 -1.50145,-0.355744 -2.26619,-0.693978 -2.26619,-1.002308 0,-0.614448 0.97288,-0.946834 3.70685,-1.266457 7.59349,-0.887743 18.08168,-3.871027 22.96228,-6.53144 4.63497,-2.526528 9.14462,-6.766758 11.75502,-11.052749 1.26777,-2.081543 2.05925,-3.873397 2.26541,-5.128711 0.3254,-1.981419 -2.03569,-1.601354 -8.50902,1.369698 -5.03586,2.311298 -7.74162,3.298921 -12.00523,4.382012 -7.60186,1.931109 -15.54419,2.40153 -19.72351,1.168214 -1.79817,-0.530643 -3.20121,-1.583843 -3.38008,-2.537278 -0.0636,-0.339286 0.13525,-5.486736 0.37718,-9.761415 0.12918,-2.282413 0.7099,-3.96729 1.751,-5.080309 0.69436,-0.742327 1.5282,-1.173204 2.77149,-1.432123 2.36192,-0.49188 4.27573,-1.726437 7.41,-4.780037 1.23038,-1.198717 2.9357,-2.739872 3.7896,-3.424791 7.65377,-6.139162 18.90645,-12.581726 24.41438,-13.978116 4.7885,-1.213994 9.7172,-1.563497 20.11854,-1.42664 l 7.0272,0.09246 -0.0615,0.264731 c -0.0338,0.145602 -0.2031,1.211967 -0.3762,2.3697 -0.54308,3.632491 -1.46985,6.354767 -4.86293,14.284341 -1.84453,4.310637 -2.83333,6.839869 -3.8311,9.799401 -0.78437,2.326593 -0.92929,2.947716 -0.68772,2.947716 0.39082,0 3.23768,-2.729151 5.69792,-5.462341 2.21808,-2.464162 3.29456,-3.424234 4.53551,-4.045056 1.03984,-0.520212 1.32448,-0.532936 2.2046,-0.09854 1.70292,0.840491 3.70156,3.603712 5.89686,8.152709 2.41377,5.001676 3.11035,9.435128 1.99047,12.668422 -0.40562,1.171083 -0.91463,1.911142 -2.40717,3.499807 -1.75356,1.866491 -3.1521,3.626108 -4.64817,5.848236 -1.36534,2.027946 -2.54701,3.315287 -4.06913,4.433038 -4.13983,3.040026 -9.83065,5.237226 -16.09027,6.212374 -1.85853,0.289531 -7.65541,0.422962 -9.22991,0.212453 z m -9.36823,-30.408682 c 2.36162,-0.964477 4.828,-3.621738 6.90096,-7.435047 2.07894,-3.824322 3.55886,-8.383897 3.55886,-10.964699 0,-1.379453 -0.19311,-1.813163 -0.8914,-2.001977 -1.56572,-0.42336 -6.99387,0.838632 -9.97175,2.318334 -2.92106,1.451464 -8.28659,5.649699 -12.20085,9.546496 -1.86824,1.859903 -2.69198,2.922728 -3.1065,4.00812 -0.20908,0.547461 -0.20823,0.5832 0.0239,1.015759 0.15012,0.279714 0.49677,0.601329 0.92168,0.85512 1.43922,0.859629 4.90725,1.999916 7.83001,2.574508 2.16523,0.425665 2.07709,0.417775 4.2866,0.383742 1.7096,-0.02633 2.08047,-0.06839 2.64846,-0.300356 z"
     id="path43"
     transform="scale(0.75)" />
  <path
     style="fill:none;stroke:#000000;stroke-width:0.05;stroke-dasharray:none;stroke-opacity:1"
     d="m 111.2286,162.68608 5.78917,6.31524 m 5.05043,14.66818 90.50365,0.003 m 16.85249,-42.18962 -0.22648,9.7241"
     id="path24"
     sodipodi:nodetypes="cccccc" />
  <path
     style="fill:#ffffff;stroke:#000000;stroke-width:0.0315572;stroke-dasharray:none;stroke-opacity:1"
     d="m 163.15425,243.18744 c -0.44154,-0.84612 -1.54605,-2.46027 -2.45446,-3.58698 -1.98491,-2.46191 -2.14497,-4.13728 -0.46826,-4.90124 1.5023,-0.6845 1.4881,-1.20077 -0.0779,-2.83537 l -1.26133,-1.31654 1.26133,-0.99216 c 0.69373,-0.54569 1.26132,-1.27094 1.26132,-1.61166 0,-0.78851 -3.01409,-3.10201 -4.92755,-3.7822 -1.39359,-0.4954 -7.8531,-6.75483 -7.8531,-7.60987 0,-0.22397 -0.98287,-2.38766 -2.18415,-4.8082 -1.67544,-3.37595 -2.23829,-5.0914 -2.41659,-7.36528 -0.21151,-2.69731 -0.12716,-3.06222 0.93643,-4.05144 0.94281,-0.87688 2.0256,-1.17577 5.59871,-1.54544 2.43641,-0.25207 6.79647,-1.09417 9.68902,-1.87135 8.06802,-2.16772 12.97202,-1.78506 14.15822,1.10478 1.02036,2.48582 3.56653,29.1239 3.56653,37.31312 0,5.05685 -0.10438,5.10171 -4.93052,2.1187 -6.16069,-3.80788 -7.85013,-4.38797 -7.85013,-2.69543 0,1.43251 3.0902,3.6231 8.08303,5.72993 2.52234,1.06435 5.07432,2.4549 5.67107,3.09011 l 1.08501,1.15493 h -8.04192 -8.04192 z m 6.4496,-14.37122 c 2.38189,-1.1984 5.06509,-4.01134 5.06509,-5.31001 0,-1.04023 -0.14212,-1.11808 -1.53322,-0.83986 -2.00554,0.40111 -6.435,3.07316 -7.33248,4.42328 -1.50659,2.26645 0.7185,3.27729 3.80061,1.72659 z"
     id="path44"
     transform="scale(0.75)" />
  <path
     style="fill:#ffffff;stroke:#000000;stroke-width:0.0315572;stroke-dasharray:none;stroke-opacity:1"
     d="m 161.76994,240.71958 c -2.47252,-3.81721 -2.72277,-4.93693 -1.30173,-5.82438 1.23184,-0.7693 1.20006,-1.90928 -0.0916,-3.28415 l -1.03828,-1.1052 1.03828,-0.72724 c 2.14091,-1.49954 1.17924,-3.1206 -3.45861,-5.83009 -4.20006,-2.45373 -7.45175,-6.32129 -9.99187,-11.88434 -1.69096,-3.70334 -2.31763,-5.69466 -2.4585,-7.81218 -0.25608,-3.84952 0.34538,-4.34662 6.35059,-5.24875 2.55884,-0.3844 6.93305,-1.22413 9.72047,-1.86607 6.62405,-1.5255 10.78264,-1.55822 12.48004,-0.0982 1.0587,0.91066 1.33923,1.7344 1.89417,5.56195 2.02375,13.95837 3.35017,36.44461 2.14979,36.44461 -0.32297,0 -2.63788,-1.17156 -5.14424,-2.60346 -5.10894,-2.91879 -6.71669,-3.26416 -6.71669,-1.44282 0,1.43535 2.44142,3.20206 8.08235,5.84869 7.05931,3.31212 7.02673,3.3768 -1.69203,3.35865 l -7.57372,-0.0158 z m 9.25715,-12.55145 c 2.35153,-1.4913 4.20529,-3.95781 3.78931,-5.04185 -0.40287,-1.04986 -2.57881,-0.73901 -5.11772,0.73111 -3.20222,1.8542 -4.49689,3.16591 -4.49689,4.55607 0,1.03355 0.20312,1.16495 1.80075,1.16495 1.18489,0 2.56131,-0.48232 4.02455,-1.41028 z"
     id="path45"
     transform="scale(0.75)" />
  <path
     style="fill:#ffffff;stroke:#000000;stroke-width:0.0315572;stroke-dasharray:none;stroke-opacity:1"
     d="m 182.83513,243.54954 c 1.38548,-1.21943 4.01082,-2.13021 6.15287,-2.13455 0.79511,-0.002 1.30174,-0.25898 1.30174,-0.66128 0,-0.84389 -3.32296,-2.1815 -5.41938,-2.1815 -2.70746,0 -3.10106,-0.82289 -3.10106,-6.48331 v -4.99561 l 1.51343,0.30268 c 3.21086,0.64217 6.32688,0.78659 7.00701,0.32475 1.28263,-0.87097 0.34438,-1.77496 -7.89779,-7.60946 -0.98975,-0.70063 -0.99758,-0.83786 -0.5914,-10.36059 0.4714,-11.05188 0.79587,-12.53461 2.90374,-13.26942 2.81702,-0.98202 5.3905,-0.5824 11.99474,1.86259 6.77092,2.50669 11.84135,3.98825 15.36515,4.48964 1.17156,0.1667 2.84713,0.52589 3.72348,0.7982 1.57815,0.49039 1.59119,0.51781 1.36508,2.87097 -0.15282,1.59035 -1.03175,3.96457 -2.65843,7.18111 -2.83676,5.60932 -2.94957,6.18319 -1.12839,5.73997 3.27579,-0.79724 4.85031,-2.45777 9.44201,-9.95775 0.4764,-0.77815 1.24933,-1.4886 1.71763,-1.57879 0.4683,-0.0902 2.53669,0.94242 4.59644,2.29468 2.05974,1.35226 4.54938,2.73904 5.53254,3.08174 1.77317,0.61807 1.78639,0.64178 1.64306,2.94567 -0.10472,1.68339 0.0636,2.49531 0.61176,2.95021 0.59085,0.49036 0.88128,0.50261 1.32789,0.056 0.77353,-0.77353 0.73835,-7.5442 -0.0464,-8.93282 -0.35678,-0.63131 -2.88215,-2.21922 -6.14739,-3.86538 -8.09829,-4.08271 -7.85832,-3.78091 -4.78815,-6.02182 1.40788,-1.02761 4.84954,-3.31881 7.64811,-5.09154 l 5.08833,-3.22316 4.0166,3.38235 c 2.20913,1.86029 4.22817,3.77767 4.48675,4.26083 0.38003,0.71009 0.007,1.50064 -1.94638,4.12423 -2.98225,4.00561 -4.16573,6.49978 -4.17925,8.8077 -0.0133,2.27779 0.70611,2.28915 3.37666,0.0533 l 2.05656,-1.72181 0.29969,3.02355 c 0.16483,1.66294 0.33728,8.2423 0.38324,14.6208 0.0459,6.37849 0.25008,12.60906 0.45364,13.84571 l 0.37009,2.24844 h -9.39211 -9.3921 v -1.63448 c 0,-1.97423 -0.80991,-3.89202 -1.80491,-4.27384 -1.2895,-0.49483 -2.22137,1.02372 -2.18406,3.55909 l 0.0346,2.34923 h -4.44107 c -2.54324,0 -4.32745,-0.18384 -4.17518,-0.43021 0.42943,-0.69484 -2.35648,-2.73403 -4.88058,-3.5724 -2.99308,-0.99414 -3.24506,-1.67135 -3.53033,-9.48808 -0.26037,-7.13464 -0.70901,-8.75711 -2.42146,-8.75711 -1.45092,0 -4.03033,2.19825 -5.26111,4.48368 -0.80217,1.48953 -0.82875,1.76262 -0.20964,2.15399 0.38994,0.24651 1.27955,0.45146 1.9769,0.45544 1.42108,0.008 2.75562,1.10216 2.75562,2.259 0,0.42023 -0.47433,1.26897 -1.05407,1.88607 -0.92016,0.97946 -1.07733,1.75012 -1.23709,6.06582 l -0.183,4.9438 -11.18856,-0.0149 -11.18855,-0.015 z m 50.37321,-13.84022 c 3.02276,-6.4084 3.60156,-8.65261 2.23064,-8.64899 -1.86375,0.005 -6.04004,4.82068 -7.50331,8.65221 -0.72392,1.89556 -0.73081,2.24688 -0.0748,3.81694 0.50942,1.2192 1.01855,1.72922 1.72621,1.72922 0.81675,0 1.49121,-1.03356 3.62126,-5.54938 z m -8.83686,2.72571 c 0,-3.39301 -9.34873,-8.45859 -12.01221,-6.50878 -0.73352,0.53697 -0.79415,0.82623 -0.34792,1.66001 1.19614,2.23502 7.55859,5.68857 10.58504,5.74558 1.46038,0.0275 1.77509,-0.13149 1.77509,-0.89681 z m -26.86304,-1.04532 c 2.05706,-1.05422 0.44209,-2.26524 -3.03811,-2.27819 -2.33596,-0.009 -3.23388,0.39411 -3.23388,1.45072 0,1.58547 3.81166,2.08835 6.27199,0.82747 z"
     id="path46"
     transform="scale(0.75)" />
  <path
     style="fill:#ffffff;stroke:#000000;stroke-width:0.0315572;stroke-dasharray:none;stroke-opacity:1"
     d="m 183.41696,243.51368 c 0.88614,-0.6698 2.62096,-1.24655 5.57104,-1.85215 2.86436,-0.58799 0.7259,-2.64651 -3.40835,-3.28093 -3.20196,-0.49136 -3.33699,-0.73475 -3.33699,-6.01484 v -4.67045 l 4.26022,0.30239 4.26021,0.3024 v -1.1966 c 0,-0.95979 -0.90143,-1.87416 -4.55506,-4.6204 l -4.55506,-3.4238 0.32513,-7.63944 c 0.42575,-10.00351 0.90514,-13.08866 2.19839,-14.1481 1.84507,-1.51149 5.17585,-1.07511 13.7031,1.79531 7.49968,2.52451 10.23415,3.27898 16.25225,4.48412 l 2.77769,0.55624 -0.21579,2.24573 c -0.12532,1.30428 -1.14096,4.22494 -2.42267,6.96685 -2.46748,5.27857 -2.67091,6.31789 -1.23667,6.31789 2.46668,0 5.31036,-2.61152 8.92847,-8.19953 2.4487,-3.7819 2.44505,-3.78162 7.73058,-0.61009 1.88933,1.13366 4.07418,2.35639 4.85522,2.71717 1.27097,0.58709 1.44492,0.92894 1.65675,3.25587 0.20279,2.22771 0.38529,2.62105 1.27477,2.74763 0.85833,0.12215 1.09339,-0.14705 1.35745,-1.55462 0.17565,-0.93629 0.22428,-3.01682 0.10807,-4.62341 -0.25401,-3.5118 -0.67447,-3.92799 -7.96993,-7.88906 -2.68254,-1.45648 -4.95927,-2.89977 -5.05939,-3.20732 -0.15399,-0.473 9.62219,-7.29856 13.04063,-9.10474 1.19156,-0.62958 1.99625,-0.10769 7.43022,4.81883 l 2.36215,2.14157 -2.50793,3.59698 c -3.02805,4.34296 -3.88239,6.27838 -3.88239,8.79516 0,2.39146 0.93301,2.52249 3.41191,0.47916 l 1.73419,-1.42946 0.24764,2.02116 c 0.1362,1.11164 0.37561,7.98547 0.53203,15.27518 0.15641,7.2897 0.40127,13.73328 0.54412,14.31906 l 0.25975,1.06506 h -9.02367 -9.02365 l -0.31127,-1.77509 c -0.92707,-5.28709 -4.46521,-5.1689 -4.46521,0.14915 v 1.62594 h -3.90967 c -3.35185,0 -3.99121,-0.13056 -4.4811,-0.915 -0.31429,-0.50324 -1.96086,-1.57811 -3.65906,-2.38858 -1.6982,-0.81048 -3.28732,-1.8467 -3.53137,-2.30272 -0.24405,-0.45602 -0.66509,-3.98361 -0.93564,-7.83909 -0.27102,-3.86211 -0.73772,-7.30614 -1.03929,-7.66951 -1.39552,-1.6815 -5.08838,0.0838 -6.79166,3.24658 -1.10748,2.05646 -0.78488,2.97228 1.18581,3.36642 2.77592,0.55518 3.56258,1.99586 2.02033,3.70002 -0.68129,0.75281 -1.34542,5.03756 -1.54587,9.9735 -0.031,0.76357 -0.85758,0.8272 -10.56585,0.81332 -9.45712,-0.0135 -10.43649,-0.0874 -9.59458,-0.72376 z m 49.88274,-13.63781 c 1.39584,-2.83038 2.64869,-5.97229 2.78413,-6.98202 0.22902,-1.70748 0.16365,-1.83587 -0.9347,-1.83587 -2.32982,0 -7.93751,7.49753 -7.93751,10.61253 0,2.16635 0.99134,3.64932 2.33495,3.49295 1.03216,-0.12013 1.59757,-0.9167 3.75313,-5.28759 z m -8.92822,2.34233 c 0,-3.54966 -9.19656,-8.4059 -12.25303,-6.47021 -2.65663,1.68248 5.28501,7.58128 10.24126,7.60689 1.81619,0.009 2.01177,-0.10112 2.01177,-1.13668 z m -27.20286,-0.48552 c 2.999,-1.25307 1.71213,-2.62763 -2.46,-2.62763 -2.45091,0 -3.05082,0.15943 -3.45718,0.91871 -0.3969,0.74162 -0.28857,1.06097 0.56203,1.65675 1.31717,0.92258 3.22742,0.94119 5.35515,0.0522 z"
     id="path47"
     transform="scale(0.75)" />
  <path
     style="fill:#ffffff;stroke:#000000;stroke-width:0.0315572;stroke-dasharray:none;stroke-opacity:1"
     d="m 184.13609,243.56548 c 0,-0.12829 1.22481,-0.58123 2.7218,-1.00654 3.74524,-1.06405 4.33046,-1.69009 2.74542,-2.93688 -0.67918,-0.53424 -2.1339,-1.12025 -3.23271,-1.30225 -3.61824,-0.59929 -3.65459,-0.6565 -3.65459,-5.75211 v -4.55112 l 4.26022,0.30239 c 3.94174,0.2798 4.26022,0.23679 4.26022,-0.57531 0,-1.33786 -1.44516,-2.90197 -5.51854,-5.97273 -2.04156,-1.53906 -3.74348,-2.80836 -3.78203,-2.82067 -0.30862,-0.0986 0.93844,-17.16966 1.38705,-18.9875 0.50237,-2.03567 0.78185,-2.40236 2.17397,-2.85232 2.12131,-0.68565 4.71462,-0.18252 13.53393,2.62576 3.91401,1.24631 9.24649,2.73835 11.84996,3.31564 2.60347,0.57728 4.97534,1.12105 5.27084,1.20837 0.8558,0.25289 -0.0352,3.91524 -2.17657,8.94638 -2.31935,5.44931 -2.41107,6.43131 -0.60069,6.43131 2.07899,0 4.58527,-2.0684 7.5444,-6.22632 1.50847,-2.11956 3.07938,-4.06478 3.4909,-4.32269 0.56858,-0.35635 1.9892,0.22794 5.91697,2.43359 l 5.16874,2.90253 0.48355,2.48811 c 0.42806,2.20258 0.61818,2.4881 1.65675,2.4881 1.13167,0 1.17821,-0.12549 1.31456,-3.5446 0.23798,-5.96766 0.1076,-6.14889 -7.58167,-10.53893 -3.93477,-2.24648 -4.95974,-3.03375 -4.56654,-3.50753 0.27885,-0.33599 3.23738,-2.44301 6.5745,-4.68227 5.54093,-3.71805 6.16319,-4.02105 7.17001,-3.49133 1.36996,0.72079 7.49282,6.08953 7.49282,6.56998 0,0.19368 -1.15051,2.07102 -2.55669,4.17187 -4.69066,7.00791 -4.40827,12.58898 0.44949,8.88378 l 1.53235,-1.16878 0.29114,8.86084 c 0.16013,4.87346 0.41628,12.00275 0.56921,15.84286 l 0.27806,6.98203 h -8.80221 c -8.53303,0 -8.80223,-0.0294 -8.80223,-0.96192 0,-0.52905 -0.31474,-1.71523 -0.69944,-2.63593 -0.58625,-1.40309 -0.90411,-1.64961 -1.96403,-1.52321 -1.44424,0.17223 -1.90199,0.83735 -2.30277,3.34597 l -0.28359,1.77509 h -3.32363 c -2.75053,0 -3.58347,-0.19251 -4.83047,-1.11641 -0.82876,-0.61403 -2.62077,-1.71056 -3.98226,-2.43674 -1.36149,-0.72618 -2.58372,-1.66162 -2.71609,-2.07876 -0.13236,-0.41713 -0.55765,-3.91243 -0.94509,-7.76734 -0.38745,-3.85491 -0.82861,-7.20983 -0.98037,-7.45538 -0.46739,-0.75624 -3.22389,-0.48835 -4.65007,0.45192 -2.5861,1.70498 -3.95755,4.97169 -2.55201,6.07875 0.32543,0.25633 1.18659,0.60827 1.9137,0.7821 1.5478,0.37004 2.12142,1.48554 1.37693,2.67767 -0.55557,0.88961 -1.42264,5.53668 -1.62964,8.73408 l -0.12258,1.89343 -9.58549,0.12814 c -5.27202,0.0705 -9.58549,0.0232 -9.58549,-0.10512 z m 47.36227,-9.76409 c 1.68117,-2.36099 4.6918,-9.53886 4.69973,-11.205 0.006,-1.35479 -0.14409,-1.53841 -1.26132,-1.53841 -2.64007,0 -7.85969,7.3313 -7.80949,10.96894 0.0476,3.45066 2.47566,4.43634 4.37108,1.77447 z m -6.97432,-1.09762 c 0.38108,-0.9931 -1.12689,-3.42359 -2.95501,-4.76277 -2.38733,-1.74882 -5.27037,-2.70532 -7.64365,-2.53589 -1.86103,0.13286 -2.11402,0.28875 -2.24084,1.38084 -0.28824,2.4821 6.16391,6.56581 10.38785,6.5747 1.44867,0.003 2.28432,-0.22085 2.45165,-0.65688 z m -26.89786,-0.84443 c 0.84199,-0.38363 1.18338,-0.86664 1.08732,-1.53841 -0.1548,-1.08268 -2.42036,-1.59517 -5.68534,-1.28608 -2.10305,0.1991 -2.94215,1.71792 -1.52257,2.75594 1.06477,0.77858 4.47833,0.81682 6.12059,0.0686 z"
     id="path48"
     transform="scale(0.75)" />
  <path
     style="fill:#ffffff;stroke:#000000;stroke-width:0.0315572;stroke-dasharray:none;stroke-opacity:1"
     d="m 188.13056,242.40958 c 3.95539,-1.39221 3.40311,-2.81249 -1.68258,-4.32708 l -3.25861,-0.97046 v -4.40576 -4.40576 l 3.52427,0.22618 c 4.59203,0.2947 5.10806,0.0939 4.46909,-1.73906 -0.40535,-1.16279 -5.70182,-5.91429 -8.56536,-7.68406 -0.55456,-0.34274 -0.26913,-7.90972 0.58996,-15.64034 0.57702,-5.19243 0.68472,-5.44582 2.58044,-6.07147 1.83697,-0.60625 4.11726,-0.1454 13.93155,2.81561 3.49402,1.05416 8.66984,2.47926 11.50181,3.16688 l 5.14906,1.25023 -0.30858,1.4714 c -0.16972,0.80927 -1.13857,3.69292 -2.153,6.40811 -2.36826,6.33879 -2.388,7.1339 -0.1771,7.1339 2.04124,0 4.72066,-2.30827 8.32824,-7.17462 2.82325,-3.80836 2.37339,-3.7947 8.81386,-0.26763 4.01899,2.20097 4.39669,2.53122 4.67754,4.0899 0.4608,2.55738 1.05527,3.42922 2.22471,3.26274 0.9655,-0.13745 1.04194,-0.43449 1.16937,-4.54403 0.13221,-4.26353 0.0963,-4.43682 -1.18339,-5.71048 -0.72586,-0.72243 -3.3966,-2.55099 -5.93498,-4.06345 -2.53838,-1.51247 -4.61524,-2.91605 -4.61524,-3.11908 0,-0.41912 8.88749,-6.53853 11.26403,-7.75575 l 1.5602,-0.79911 2.9367,2.33838 c 5.2009,4.14127 5.07708,3.77387 2.6167,7.76424 -3.9456,6.39916 -4.76375,10.38554 -2.19244,10.68243 0.70094,0.0809 1.79716,-0.19537 2.43606,-0.61399 l 1.16164,-0.76114 0.27494,2.7441 c 0.15121,1.50926 0.39848,7.74986 0.54948,13.868 0.151,6.11815 0.38687,11.71456 0.52416,12.43647 l 0.2496,1.31257 -8.67266,-0.12917 c -8.25585,-0.12297 -8.67992,-0.17468 -8.82366,-1.07589 -0.083,-0.5207 -0.37789,-1.5325 -0.65522,-2.24845 -1.05188,-2.71552 -4.6496,-1.07738 -4.6496,2.1171 0,1.31049 -0.0106,1.31474 -3.26864,1.31474 -3.04831,0 -3.5024,-0.14412 -6.73626,-2.13792 -1.90719,-1.17586 -3.73934,-2.40966 -4.07145,-2.74177 -0.33598,-0.33598 -0.92089,-3.32473 -1.31856,-6.73753 -1.16853,-10.02834 -0.86842,-9.21051 -3.37985,-9.21051 -1.883,0 -2.40324,0.23889 -4.00209,1.83774 -1.45894,1.45894 -1.83774,2.19151 -1.83774,3.55401 0,1.56049 0.17187,1.78505 1.89343,2.47388 1.98861,0.79568 2.1865,1.24242 1.43081,3.23004 -0.25445,0.66924 -0.70834,3.13273 -1.00865,5.47443 l -0.54602,4.25763 -8.57684,-0.0367 -8.57685,-0.0367 z m 42.8485,-7.70774 c 1.60092,-1.49148 4.87553,-8.76608 5.12957,-11.39542 0.21002,-2.17374 0.17537,-2.24844 -1.04303,-2.24844 -1.86619,0 -3.36138,1.18939 -5.47595,4.35598 -2.38235,3.5676 -3.09407,6.01835 -2.37795,8.18823 0.7733,2.3431 2.03681,2.71191 3.76736,1.09965 z m -6.3218,-2.00388 c 0.14084,-0.36702 -0.0712,-1.3002 -0.47121,-2.07372 -1.64647,-3.18393 -6.03542,-5.46938 -10.01933,-5.21735 -2.11013,0.13349 -2.35301,0.26641 -2.48007,1.35725 -0.2037,1.74869 1.38513,3.48098 4.72208,5.14847 3.25255,1.62532 7.76147,2.05462 8.24853,0.78535 z m -26.76268,-0.76941 c 2.31214,-1.23743 0.37072,-3.29685 -3.10795,-3.29685 -2.56011,0 -4.02354,0.75615 -4.02354,2.07894 0,0.63562 0.26627,1.26311 0.5917,1.39442 1.09213,0.44068 5.61462,0.31862 6.53979,-0.17651 z"
     id="path49"
     transform="scale(0.75)" />
  <path
     style="fill:#ffffff;stroke:#000000;stroke-width:0.0315572;stroke-dasharray:none;stroke-opacity:1"
     d="m 252.54842,243.28225 c 0.41059,-0.79398 0.97639,-3.19035 1.25734,-5.32527 0.44852,-3.4082 0.38781,-4.47015 -0.49768,-8.70627 -2.70319,-12.93185 0.39817,-23.58221 10.51832,-36.12083 4.55903,-5.64853 2.72168,-6.4443 -3.78608,-1.63979 -2.30481,1.70158 -4.67288,3.21651 -5.26238,3.36651 -1.48572,0.37806 -5.91708,-1.94616 -8.50383,-4.46019 -4.34506,-4.22292 -5.25182,-7.9804 -6.55433,-27.16009 l -0.27813,-4.09557 -3.07402,-0.58002 c -3.95143,-0.74558 -5.21657,-2.02078 -8.74612,-8.81572 -5.14092,-9.89706 -5.97394,-13.22005 -4.25364,-16.96822 1.28748,-2.80514 7.01154,-9.96553 10.87175,-13.59977 3.43312,-3.23216 5.38502,-4.23476 6.35534,-3.26443 0.88456,0.88455 3.2944,0.61078 8.21455,-0.93321 5.52191,-1.73283 11.90917,-2.29135 15.85654,-1.38653 3.96117,0.90797 9.98614,4.00608 12.81027,6.58718 4.84876,4.43149 6.35806,8.90338 5.91555,17.52714 -0.48302,9.41312 -3.24535,19.18346 -6.10366,21.58857 -2.03425,1.71171 -3.6977,1.48375 -9.22811,-1.26464 -4.803,-2.3869 -4.94516,-2.42481 -6.90044,-1.84012 -1.09802,0.32835 -2.95495,1.08178 -4.12651,1.67429 -1.17156,0.59251 -3.28383,1.41959 -4.69393,1.83797 -4.06651,1.20653 -5.4924,3.08206 -3.1534,4.14778 1.85075,0.84326 6.04213,0.0594 9.50321,-1.77735 l 3.09466,-1.64226 2.00329,0.89182 c 4.43106,1.9726 8.37083,8.1804 9.87993,15.56754 1.23566,6.04867 1.59158,6.87128 2.893,6.68644 1.01621,-0.14433 1.06287,-0.34365 1.03282,-4.41138 -0.0173,-2.34312 -0.12382,-6.38081 -0.23668,-8.97265 l -0.2052,-4.71243 1.59121,-0.96786 c 2.94046,-1.78853 5.58958,-4.48505 7.01382,-7.1393 l 1.41411,-2.63539 2.18094,4.95134 c 2.34318,5.31968 3.65739,10.57429 3.65739,14.62331 0,2.20438 -1.10707,7.77459 -1.65386,8.32138 -0.10696,0.10697 -0.54924,-0.16027 -0.98283,-0.59386 -0.58981,-0.58981 -1.45976,-0.75301 -3.45439,-0.64805 -2.48184,0.13061 -2.66603,0.22109 -2.66603,1.30972 0,1.96777 4.30999,3.28015 5.8755,1.78907 0.50682,-0.48272 0.56197,-0.39554 0.29945,0.47335 -0.4388,1.4524 0.10844,2.9582 1.07565,2.9598 0.43806,7.3e-4 1.65423,-0.45297 2.70261,-1.0082 l 1.90613,-1.00951 3.06412,1.29209 c 1.68527,0.71065 3.85151,1.52482 4.81387,1.80926 l 1.74974,0.51717 -0.2863,4.76089 c -0.23343,3.88173 -0.44778,4.87546 -1.16075,5.38132 -1.57438,1.11704 -2.30882,3.32421 -3.51129,10.55225 -1.863,11.19841 -3.07966,13.60923 -11.68573,23.15536 -5.72283,6.34794 -7.91982,9.25382 -7.91982,10.47527 0,0.83321 -0.71261,0.87569 -14.68624,0.87569 h -14.68624 z m 18.52348,-25.65612 c 3.00003,-3.09463 8.5827,-9.97694 11.10098,-13.68527 1.89643,-2.79262 2.32504,-5.05806 1.03694,-5.48076 -0.83192,-0.273 -4.56988,3.34225 -8.01497,7.75185 -4.44573,5.6904 -8.69455,12.06339 -8.69455,13.04134 0,1.69429 2.06381,0.95972 4.5716,-1.62716 z"
     id="path50"
     transform="scale(0.75)" />
  <path
     style="fill:#ffffff;stroke:#000000;stroke-width:0.0315572;stroke-dasharray:none;stroke-opacity:1"
     d="m 253.0602,242.54768 c 1.18687,-2.84058 1.36618,-8.84564 0.42089,-14.09567 -1.07624,-5.97729 -0.77957,-13.33818 0.71771,-17.8079 1.59214,-4.75291 4.84692,-10.65823 8.74001,-15.85748 3.2258,-4.30807 4.36687,-6.86368 3.06463,-6.86368 -0.81208,0 -3.29186,1.39892 -7.25499,4.09277 -2.05057,1.39383 -4.0856,2.53423 -4.52229,2.53423 -1.51936,0 -5.5487,-2.37643 -7.73312,-4.56085 -3.9421,-3.94211 -5.07491,-8.02078 -6.05514,-21.80151 -0.57626,-8.10149 -0.92339,-9.6114 -2.21056,-9.61545 -1.84942,-0.006 -4.50207,-1.07253 -6.05262,-2.43393 -1.10321,-0.96863 -2.81112,-3.79088 -5.23096,-8.64393 -4.09229,-8.2072 -4.82855,-11.45918 -3.28534,-14.51098 2.00327,-3.96159 8.84101,-12.14325 12.69384,-15.18874 2.19044,-1.73144 2.38364,-1.79034 4.98192,-1.51876 2.12363,0.22196 3.71556,0.002 7.42595,-1.02521 6.67824,-1.84917 13.6369,-2.1423 17.81894,-0.75061 4.14406,1.37905 9.76712,4.75273 11.95148,7.17055 0.99321,1.09937 2.36715,3.19598 3.05321,4.65913 1.18369,2.52444 1.24621,3.0349 1.22457,9.99731 -0.0182,5.84724 -0.22716,8.15501 -1.02921,11.36535 -2.21024,8.84695 -4.24915,12.30253 -7.2589,12.30253 -0.83603,0 -3.54358,-0.95855 -6.01676,-2.13011 -2.47319,-1.17156 -5.11808,-2.13011 -5.87753,-2.13011 -0.75946,0 -3.34032,0.82717 -5.73525,1.83814 -2.39494,1.01098 -4.88695,2.00023 -5.53782,2.19834 -3.3007,1.00465 -4.59532,3.67085 -2.08802,4.30014 2.19494,0.5509 6.22791,-0.18375 9.44967,-1.72135 l 3.15502,-1.50575 1.88025,0.84787 c 3.92975,1.77207 7.61325,7.44732 9.37716,14.44762 2.05552,8.15753 1.81232,7.59637 3.22157,7.43368 l 1.27569,-0.14727 v -8.81016 -8.81016 l 2.36679,-1.76966 c 2.86159,-2.13963 4.67358,-4.13771 5.9696,-6.58266 0.53393,-1.00728 1.13514,-1.64631 1.33601,-1.42008 0.77514,0.87301 3.76316,8.72589 4.54644,11.9486 0.60286,2.48042 0.7555,4.4895 0.5714,7.5209 -0.29956,4.93252 -0.98574,7.11618 -1.97749,6.29311 -0.38662,-0.32087 -1.81169,-0.49004 -3.424,-0.40647 -2.42699,0.1258 -2.7796,0.26862 -2.90908,1.17829 -0.19932,1.40029 1.91835,2.74511 4.22736,2.68456 1.589,-0.0417 1.80177,0.0899 1.92976,1.19356 0.18284,1.57645 1.83801,1.83819 4.16741,0.659 1.64571,-0.8331 1.68164,-0.82868 5.39392,0.66247 2.05544,0.82564 4.16457,1.61292 4.68695,1.74953 0.88972,0.23267 0.93217,0.52037 0.67119,4.54876 -0.23854,3.68181 -0.45133,4.50564 -1.47935,5.72737 -1.37396,1.63286 -1.83091,3.12545 -3.13562,10.24222 -1.91001,10.41847 -3.21225,13.23228 -9.48936,20.50417 -6.94695,8.04789 -9.34848,11.07451 -9.86477,12.43245 l -0.4869,1.28065 h -14.18829 -14.18829 z m 15.99601,-22.88039 c 2.28026,-1.40928 10.39018,-10.94904 13.48387,-15.8612 1.78613,-2.83601 2.02198,-5.46928 0.48987,-5.46928 -1.88316,0 -8.95459,8.10027 -14.34275,16.42953 -2.05973,3.184 -2.60034,4.77369 -1.87133,5.50271 0.45337,0.45337 0.59442,0.41548 2.24034,-0.60176 z"
     id="path51"
     transform="scale(0.75)" />
  <path
     style="fill:#ffffff;stroke:#000000;stroke-width:0.0315572;stroke-dasharray:none;stroke-opacity:1"
     d="m 192.25492,83.642241 -1.58499,-0.604136 4.42514,-2.410266 c 2.43383,-1.325643 8.15283,-4.324703 12.70889,-6.664571 9.92463,-5.09701 11.35368,-5.909019 11.35759,-6.453526 0.002,-0.229386 -2.18037,-0.310933 -4.84892,-0.181214 -5.38494,0.261764 -7.77888,1.01993 -13.1792,4.173882 -13.07297,7.635025 -27.44534,12.281877 -37.98696,12.281877 -4.57055,0 -7.46444,-0.612927 -6.66054,-1.410705 0.23765,-0.235841 2.66871,-0.7822 5.40235,-1.214125 5.7103,-0.902247 14.60425,-3.355205 18.64554,-5.142457 4.07631,-1.802739 8.52388,-5.165481 11.31697,-8.5566 2.77018,-3.363298 5.22254,-7.866121 4.96552,-9.117272 -0.26369,-1.283646 -2.57688,-0.939621 -7.06903,1.051334 -10.67447,4.731005 -17.80046,6.505784 -26.43892,6.584796 -5.15307,0.04713 -6.16142,-0.0739 -7.8104,-0.937462 l -1.89343,-0.991582 -0.13806,-3.895688 c -0.0759,-2.142629 0.0698,-5.395421 0.32379,-7.228428 0.53916,-3.890653 1.60061,-5.333825 4.49655,-6.11362 2.20623,-0.594076 5.12106,-2.510255 7.15165,-4.701417 3.57872,-3.861707 14.89901,-11.458291 22.52264,-15.114019 5.93328,-2.845162 8.95653,-3.355964 21.68756,-3.664276 l 11.07516,-0.268212 -0.31372,2.365006 c -0.38763,2.922081 -2.20225,8.218385 -5.89244,17.19817 -2.89407,7.042474 -4.02337,10.388316 -3.5063,10.388316 0.16002,0 2.56064,-2.236615 5.33472,-4.970255 3.18071,-3.13435 5.41118,-4.970254 6.03844,-4.970254 2.78206,0 7.78151,8.40314 9.11276,15.316837 0.6324,3.284246 0.0939,5.772423 -1.74219,8.049823 -0.8682,1.076883 -3.05907,3.875067 -4.86862,6.218187 -4.35445,5.638455 -7.86741,7.950097 -15.6161,10.275916 -3.95324,1.186584 -14.596,1.628137 -17.01545,0.705941 z M 187.0288,53.08446 c 3.90794,-2.478342 8.37681,-10.829948 8.83247,-16.506463 l 0.23837,-2.969611 h -2.38173 c -5.80471,0 -11.88707,3.341782 -19.57972,10.75752 -3.94937,3.807196 -4.89908,5.180578 -4.26315,6.164903 0.95534,1.478715 8.62903,3.835659 12.62996,3.879245 1.84734,0.02013 2.87807,-0.281905 4.5238,-1.325594 z"
     id="path52"
     transform="scale(0.75)" />
  <path
     style="fill:#ffffff;stroke:#000000;stroke-width:0.0315572;stroke-dasharray:none;stroke-opacity:1"
     d="m 192.45431,83.392744 c -1.09861,-0.469343 -0.62263,-0.752146 14.8763,-8.838802 5.8578,-3.056342 10.91681,-5.770599 11.24224,-6.03168 1.2595,-1.010449 0.43995,-1.30549 -3.62635,-1.30549 -5.37986,0 -8.40782,0.933105 -15.06263,4.641749 -13.55003,7.551251 -26.14856,11.460323 -36.88655,11.445161 -6.1528,-0.0087 -7.72425,-0.600184 -3.66301,-1.378753 17.01624,-3.262144 24.6433,-6.240259 30.40231,-11.871108 5.53566,-5.412468 8.72962,-12.286873 5.8959,-12.689845 -0.57615,-0.08193 -4.01646,1.031188 -7.64513,2.473601 -3.62868,1.442412 -8.37748,3.138358 -10.5529,3.768769 -8.02502,2.325561 -18.68697,2.830472 -22.10854,1.04698 l -1.59207,-0.829868 0.1975,-6.232082 c 0.25457,-8.032766 0.61837,-8.788202 5.25909,-10.920502 2.26222,-1.039438 4.68089,-2.717379 7.19471,-4.991282 7.53348,-6.8145 22.80698,-15.764559 29.11149,-17.05893 1.9869,-0.407927 16.05898,-1.225838 24.22981,-1.408307 0.65829,-0.0147 0.74993,0.294074 0.52152,1.757256 -0.41664,2.669107 -2.20907,7.95877 -5.81447,17.159211 -3.67767,9.384885 -4.13963,10.887224 -3.34777,10.887224 0.29935,0 2.78405,-2.130109 5.52156,-4.733576 2.73751,-2.603466 5.36653,-4.733575 5.84229,-4.733575 2.31254,0 7.57627,8.840421 8.62662,14.488391 0.80784,4.34394 0.33309,5.7489 -3.70052,10.951109 -5.04698,6.50919 -7.458,8.852817 -11.02168,10.713628 -5.46693,2.854615 -8.94889,3.683128 -16.36046,3.892892 -3.64486,0.103154 -7.03752,0.01218 -7.53926,-0.202171 z m -6.04627,-29.626276 c 4.38435,-2.296915 8.98244,-10.7033 9.79614,-17.909633 0.35314,-3.127546 0.62112,-2.997842 -4.62617,-2.239092 -5.48593,0.793257 -11.40293,4.441186 -18.42251,11.357789 -4.26889,4.206265 -4.54581,5.228192 -1.84323,6.80229 4.00375,2.331955 12.34341,3.430583 15.09577,1.988646 z"
     id="path53"
     transform="scale(0.75)" />
</svg>
